HIERARCHY
ROOT Hips
{
	OFFSET 0.00000 0.00000 0.00000
	CHANNELS 6 Xposition Yposition Zposition Zrotation Yrotation Xrotation 
	JOINT LHipJoint
	{
		OFFSET 0 0 0
		CHANNELS 3 Zrotation Yrotation Xrotation
		JOINT LeftHip
		{
			OFFSET 1.56857 -1.73443 1.15205
			CHANNELS 3 Zrotation Yrotation Xrotation
			JOINT LeftKnee
			{
				OFFSET 2.39362 -6.57643 0.00000
				CHANNELS 3 Zrotation Yrotation Xrotation
				JOINT LeftAnkle
				{
					OFFSET 2.50952 -6.89485 0.00000
					CHANNELS 3 Zrotation Yrotation Xrotation
					JOINT LeftToe
					{
						OFFSET 0.17171 -0.47178 1.88682
						CHANNELS 3 Zrotation Yrotation Xrotation
						End Site
						{
							OFFSET 0.00000 -0.00000 0.98146
						}
					}
				}
			}
		}
	}
	JOINT RHipJoint
	{
		OFFSET 0 0 0
		CHANNELS 3 Zrotation Yrotation Xrotation
		JOINT RightHip
		{
			OFFSET -1.28153 -1.73443 1.15205
			CHANNELS 3 Zrotation Yrotation Xrotation
			JOINT RightKnee
			{
				OFFSET -2.26861 -6.23296 0.00000
				CHANNELS 3 Zrotation Yrotation Xrotation
				JOINT RightAnkle
				{
					OFFSET -2.54143 -6.98254 0.00000
					CHANNELS 3 Zrotation Yrotation Xrotation
					JOINT RightToe
					{
						OFFSET -0.23309 -0.64041 1.93119
						CHANNELS 3 Zrotation Yrotation Xrotation
						End Site
						{
							OFFSET -0.00000 -0.00000 1.02013
						}
					}
				}
			}
		}
	}
	JOINT lowerback
	{
		OFFSET 0 0 0
		CHANNELS 3 Zrotation Yrotation Xrotation
		JOINT Chest
		{
			OFFSET -0.07096 2.10460 -0.27878
			CHANNELS 3 Zrotation Yrotation Xrotation
			JOINT Chest2
			{
				OFFSET -0.00826 2.13662 -0.08279
				CHANNELS 3 Zrotation Yrotation Xrotation
				JOINT lowerneck
				{
					OFFSET 0 0 0
					CHANNELS 3 Zrotation Yrotation Xrotation
					JOINT Neck
					{
						OFFSET 0.03239 1.77799 0.24435
						CHANNELS 3 Zrotation Yrotation Xrotation
						JOINT Head
						{
							OFFSET 0.01026 1.74194 -0.49664
							CHANNELS 3 Zrotation Yrotation Xrotation
							End Site
							{
								OFFSET 0.00170 1.83057 -0.19653
							}
						}
					}
				}
				JOINT LeftCollar
				{
					OFFSET 0 0 0
					CHANNELS 3 Zrotation Yrotation Xrotation
					JOINT LeftShoulder
					{
						OFFSET 3.19178 1.35907 -0.31412
CHANNELS 3 Zrotation Xrotation Yrotation
						JOINT LeftElbow
						{
OFFSET 0 -4.852470 -0.000000
CHANNELS 3 Zrotation Xrotation Yrotation
							JOINT LeftWrist
							{
OFFSET 0 -3.555840 0.000000
CHANNELS 3 Zrotation Xrotation Yrotation
								JOINT lhand
								{
									OFFSET 0 0 0
CHANNELS 3 Zrotation Xrotation Yrotation
									JOINT LFingers
									{
OFFSET 0 -0.693200 0.000000
CHANNELS 3 Zrotation Xrotation Yrotation
										End Site
										{
OFFSET 0 -0.558880 0.000000
										}
									}
								}
								JOINT LThumb
								{
OFFSET 0 0.000000 0.000000
CHANNELS 3 Zrotation Xrotation Yrotation
									End Site
									{
OFFSET 0 -0.567410 0.567410
									}
								}
							}
						}
					}
				}
				JOINT RightCollar
				{
					OFFSET 0 0 0
					CHANNELS 3 Zrotation Yrotation Xrotation
					JOINT RightShoulder
					{
						OFFSET -3.28999 1.24191 -0.26899
CHANNELS 3 Zrotation Xrotation Yrotation
						JOINT RightElbow
						{
OFFSET 0 -4.644620 0.000000
CHANNELS 3 Zrotation Xrotation Yrotation
							JOINT RightWrist
							{
OFFSET 0 -3.407030 0.000000
CHANNELS 3 Zrotation Xrotation Yrotation
								JOINT rhand
								{
									OFFSET 0 0 0
CHANNELS 3 Zrotation Xrotation Yrotation
									JOINT RFingers
									{
OFFSET 0 -0.619580 0.000000
CHANNELS 3 Zrotation Xrotation Yrotation
										End Site
										{
OFFSET 0 -0.499520 0.000000
										}
									}
								}
								JOINT RThumb
								{
OFFSET 0 0.000000 0.000000
CHANNELS 3 Zrotation Xrotation Yrotation
									End Site
									{
OFFSET 0 -0.507150 0.507150
									}
								}
							}
						}
					}
				}
			}
		}
	}
}
MOTION
Frames: 5
Frame Time: 0.008333333333333333
-27.376200 15.767900 0.148900 123.228000 71.119800 129.797000 0.000000 0.000000 0.000000 -33.694400 6.017400 21.640000 0.916000 6.098300 17.069900 0.234000 -8.848800 -9.910900 0.755700 -5.551900 -15.489700 0.000000 0.000000 0.000000 -6.446700 2.563300 -56.933500 -14.859600 -19.354300 74.813500 -39.702800 1.985100 168.780400 -0.310400 -3.581500 9.902100 -17.773500 -5.117100 16.777800 -5.139400 -9.509800 3.653700 5.899300 -4.331800 -3.309100 3.249000 4.218400 -30.375800 2.607700 3.709000 24.454000 1.240700 2.346800 13.267600 0.000000 0.000000 0.000000 19.326600 -34.399900 -47.410200 85.405400 -59.920100 56.022000 57.056000 -50.834200 32.810900 0.000000 0.000000 0.000000 -7.125000 0.000000 0.000000 13.084900 -18.789000 16.956800 0.000000 0.000000 0.000000 -40.430500 52.940400 67.367500 -53.247100 -54.224000 -28.788400 -34.408000 -5.467100 21.265300 0.000000 0.000000 0.000000 7.125000 0.000000 -0.000000 -6.228500 55.126100 1.553100
-26.936613 15.804410 0.164757 123.897451 71.394933 130.479878 0.000000 0.000000 0.000000 -32.013868 6.948940 23.219060 0.793044 5.674634 15.845898 0.041029 -8.223787 -6.083905 0.319374 -3.118795 -8.658489 0.000000 0.000000 0.000000 -6.232757 3.080638 -57.479163 -16.795764 -19.698552 80.567963 -42.956446 26.301572 151.757808 -0.291474 -3.470756 9.592375 -17.856430 -5.338716 16.298379 -4.835174 -9.713321 3.648968 6.221557 -4.479629 -2.940103 3.460833 4.490336 -30.068377 2.228984 4.132730 24.526252 1.135135 2.494629 13.253917 0.000000 0.000000 0.000000 20.441840 -34.987763 -47.019719 87.770729 -59.969270 58.069739 57.616177 -52.962695 33.655674 0.000000 0.000000 0.000000 -7.125000 0.000000 0.000000 13.053825 -20.106737 17.089411 0.000000 0.000000 0.000000 -42.717886 53.704546 69.035117 -53.800308 -54.416587 -29.238089 -34.178072 -6.505932 20.583381 0.000000 0.000000 0.000000 7.125000 0.000000 0.000000 -6.046016 54.294114 1.386792
-26.495744 15.844599 0.174704 123.661644 71.131652 130.311586 0.000000 0.000000 0.000000 -31.088432 7.800828 24.676313 0.699026 5.341884 14.886839 -0.080764 -7.472424 -2.883816 0.071460 -1.724157 -4.743979 0.000000 0.000000 0.000000 -6.760305 3.248391 -57.960926 -18.472758 -19.922615 85.526904 -30.871992 45.666368 123.682242 -0.261173 -3.281335 9.063627 -18.441810 -5.567943 15.833037 -4.710438 -9.995936 3.626338 6.606934 -4.656983 -2.517437 3.777773 4.794502 -29.860429 1.783273 4.572602 24.709689 0.994916 2.650209 13.313307 0.000000 0.000000 0.000000 21.596139 -35.422706 -46.660380 89.967273 -59.992734 59.971583 58.166151 -54.058021 34.018796 0.000000 0.000000 0.000000 -7.125000 0.000000 0.000000 13.196497 -20.887064 17.389274 0.000000 0.000000 0.000000 -44.921298 54.399299 70.670755 -54.373339 -54.612770 -29.704702 -33.903955 -7.472443 20.036623 0.000000 0.000000 0.000000 7.125000 0.000000 0.000000 -5.803394 53.608553 1.233644
-26.053216 15.889549 0.177006 122.254967 70.171978 129.042379 0.000000 0.000000 0.000000 -31.139648 8.549692 25.976019 0.642440 5.126727 14.270458 -0.110496 -6.557636 -0.494573 0.067240 -1.672685 -4.601968 0.000000 0.000000 0.000000 -8.246908 2.963986 -58.360039 -19.814536 -19.991223 89.456906 1.050962 58.626602 81.310613 -0.216159 -2.990153 8.251590 -19.677065 -5.807014 15.385905 -4.817857 -10.380855 3.580557 7.073951 -4.872524 -2.025356 4.230659 5.140353 -29.781144 1.250909 5.033353 25.036933 0.809874 2.815813 13.467210 0.000000 0.000000 0.000000 22.800959 -35.659859 -46.341320 91.945510 -59.982952 61.684725 58.702926 -53.817032 33.758945 0.000000 0.000000 0.000000 -7.125000 0.000000 0.000000 13.563896 -20.972296 17.905460 0.000000 0.000000 0.000000 -47.016097 55.004298 72.265032 -54.972008 -54.813606 -30.193203 -33.572682 -8.345414 19.664685 0.000000 0.000000 0.000000 7.125000 0.000000 0.000000 -5.482991 53.112379 1.097516
-25.571322 15.925076 0.168602 121.933928 69.148627 128.416638 0.000000 0.000000 0.000000 -31.226550 9.107078 27.848321 0.620479 5.040652 14.024600 -0.107051 -6.254140 -0.239362 0.062239 -1.608946 -4.426168 0.000000 0.000000 0.000000 -9.511587 2.081169 -57.659126 -19.253352 -19.976414 87.815465 5.163872 47.036331 41.820306 -0.166071 -2.606856 7.187185 -20.697701 -6.160838 14.887028 -4.949141 -10.803857 3.763837 7.352445 -5.149568 -1.261279 4.467142 5.439644 -29.705984 1.000299 5.443195 25.321020 0.760160 2.979912 13.593624 0.000000 0.000000 0.000000 23.988325 -35.646261 -45.984009 93.922073 -59.932799 63.395637 58.848827 -53.859078 33.927606 0.000000 0.000000 0.000000 -7.125000 0.000000 0.000000 13.572760 -21.259210 17.954549 0.000000 0.000000 0.000000 -49.073537 55.577849 73.746564 -55.932836 -55.120886 -30.980854 -33.077030 -8.742868 19.810307 0.000000 0.000000 0.000000 7.125000 0.000000 0.000000 -4.934476 53.175307 0.993059
